<svg xmlns="http://www.w3.org/2000/svg" viewBox="0 0 1200 120" width="100%" height="100%">
  <defs>
    <linearGradient id="footerGlow" x1="0%" y1="0%" x2="100%" y2="0%">
      <stop offset="0%" stop-color="#38bdf8" stop-opacity="0.8"/>
      <stop offset="50%" stop-color="#818cf8" stop-opacity="0.9"/>
      <stop offset="100%" stop-color="#c084fc" stop-opacity="0.8"/>
    </linearGradient>
    <linearGradient id="footerBase" x1="0%" y1="0%" x2="100%" y2="100%">
      <stop offset="0%" stop-color="#0b1120"/>
      <stop offset="100%" stop-color="#020617"/>
    </linearGradient>
  </defs>

  <rect width="1200" height="120" rx="12" fill="url(#footerBase)"/>

  <!-- Wave Lines -->
  <path d="M 0 40 C 300 80, 500 10, 800 50 C 950 70, 1100 30, 1200 50 L 1200 120 L 0 120 Z" fill="#0f172a" fill-opacity="0.7"/>
  <path d="M 0 60 C 320 25, 550 85, 850 45 C 1000 60, 1120 30, 1200 40 L 1200 120 L 0 120 Z" fill="#1e293b" fill-opacity="0.5"/>
  <path d="M 0 40 C 300 80, 500 10, 800 50 C 950 70, 1100 30, 1200 50" fill="none" stroke="url(#footerGlow)" stroke-width="2" stroke-opacity="0.6"/>

  <text x="600" y="95" fill="#64748b" font-family="-apple-system, BlinkMacSystemFont, 'Segoe UI', Roboto, sans-serif" font-size="13" font-weight="400" text-anchor="middle">
    Engineering excellence comes from verification, not assumption. · Built with ❤️ by lwayne
  </text>
</svg>
